# Wavefront OBJ exported by MilkShape 3D

mtllib cube.mtl

v -0.500000 0.500000 -0.500000
v -0.500000 0.500000 0.500000
v 0.500000 0.500000 0.500000
v 0.500000 0.500000 -0.500000
v -0.500000 -0.500000 -0.500000
v -0.500000 -0.500000 0.500000
v 0.500000 -0.500000 0.500000
v 0.500000 -0.500000 -0.500000
# 8 vertices

vt 0.000000 1.000000
vt 0.000000 0.000000
vt 1.000000 0.000000
vt 1.000000 1.000000
# 4 texture coordinates

vn 0.000000 1.000000 0.000000
vn -1.000000 0.000000 0.000000
vn 1.000000 0.000000 0.000000
vn 0.000000 0.000000 -1.000000
vn 0.000000 0.000000 1.000000
vn 0.000000 -1.000000 0.000000
# 6 normals

g cube
usemtl default
s 1
f 1/1/1 2/2/1 3/3/1
f 1/1/1 3/3/1 4/4/1
f 1/1/2 5/2/2 6/3/2
f 1/1/2 6/3/2 2/4/2
f 3/1/3 7/2/3 8/3/3
f 3/1/3 8/3/3 4/4/3
f 4/1/4 8/2/4 5/3/4
f 4/1/4 5/3/4 1/4/4
f 2/1/5 6/2/5 7/3/5
f 2/1/5 7/3/5 3/4/5
f 6/1/6 5/2/6 8/3/6
f 6/1/6 8/3/6 7/4/6
# 12 triangles in group

# 12 triangles total

